<?xml version="1.0" standalone="no"?>
<!DOCTYPE svg PUBLIC "-//W3C//DTD SVG 20010904//EN"
 "http://www.w3.org/TR/2001/REC-SVG-20010904/DTD/svg10.dtd">
<svg version="1.0" xmlns="http://www.w3.org/2000/svg"
 width="500.000000pt" height="500.000000pt" viewBox="0 0 500.000000 500.000000"
 preserveAspectRatio="xMidYMid meet">

<g transform="translate(0.000000,500.000000) scale(0.100000,-0.100000)"
fill="#000000" stroke="none">
<path d="M2540 4404 c-461 -50 -756 -172 -1125 -463 -292 -229 -511 -566 -604
-926 -91 -353 -89 -763 7 -1085 143 -486 550 -938 1039 -1154 301 -133 593
-191 958 -191 328 1 591 48 830 150 237 101 477 340 549 549 48 140 51 158 51
291 -1 114 -4 139 -27 202 -43 119 -94 200 -187 293 -122 121 -258 208 -671
425 -399 210 -437 231 -535 294 -256 164 -375 341 -375 558 0 176 86 315 246
400 74 39 141 53 253 53 166 0 266 -33 412 -135 83 -58 115 -67 142 -37 46 51
-9 118 -156 191 -139 70 -194 83 -371 88 -217 7 -349 -18 -509 -97 -330 -164
-504 -515 -427 -862 32 -148 100 -266 222 -385 135 -134 243 -203 611 -394
546 -284 622 -330 750 -457 102 -100 147 -205 147 -341 0 -207 -114 -406 -304
-530 -155 -101 -302 -136 -561 -135 -157 0 -194 4 -290 26 -359 84 -634 255
-864 538 -132 161 -214 309 -296 530 -161 433 -167 1039 -15 1475 87 249 216
461 385 631 187 189 371 293 634 359 248 63 639 58 872 -9 375 -109 640 -335
819 -701 27 -57 57 -105 65 -108 8 -4 21 1 30 9 13 13 15 68 15 397 0 415 -2
429 -53 435 -19 2 -40 -7 -74 -36 -63 -52 -104 -72 -149 -72 -20 0 -125 29
-233 64 -307 101 -470 138 -710 161 -184 18 -331 17 -501 -1z"/>
</g>
</svg>
